<svg xmlns="http://www.w3.org/2000/svg" viewBox="0 0 800 430" width="100%" role="img" aria-label="Where the tongue sits and what it touches" style="font-size:14px;fill:var(--fig-ink, #1a1a1e)"><defs><marker id="fig-head" viewBox="0 0 10 10" refX="9" refY="5" markerWidth="7" markerHeight="7" orient="auto-start-reverse"><path d="M0,1 L9,5 L0,9 z" fill="var(--fig-key, #b07d12)"/></marker><marker id="fig-tail" viewBox="0 0 10 10" refX="1" refY="5" markerWidth="7" markerHeight="7" orient="auto"><path d="M9,1 L0,5 L9,9 z" fill="var(--fig-key, #b07d12)"/></marker></defs><title>Where the tongue sits and what it touches</title><circle cx="400" cy="920" r="640" fill="none" stroke="var(--fig-ink, #1a1a1e)" stroke-width="2"/><circle cx="400" cy="920" r="614" fill="none" stroke="var(--fig-line, #d6d8dd)" stroke-width="1.3" stroke-dasharray="5 5"/><circle cx="111.74" cy="377.87" r="13" fill="var(--fig-wash, rgba(20,22,28,0.05))" stroke="var(--fig-key, #b07d12)" stroke-width="2"/><circle cx="179.96" cy="346.78" r="13" fill="var(--fig-wash, rgba(20,22,28,0.05))" stroke="var(--fig-key, #b07d12)" stroke-width="2"/><circle cx="251.46" cy="324.24" r="13" fill="var(--fig-wash, rgba(20,22,28,0.05))" stroke="var(--fig-key, #b07d12)" stroke-width="2"/><circle cx="325.17" cy="310.58" r="13" fill="var(--fig-wash, rgba(20,22,28,0.05))" stroke="var(--fig-key, #b07d12)" stroke-width="2"/><circle cx="400" cy="306" r="13" fill="var(--fig-wash, rgba(20,22,28,0.05))" stroke="var(--fig-key, #b07d12)" stroke-width="2"/><circle cx="474.83" cy="310.58" r="13" fill="var(--fig-wash, rgba(20,22,28,0.05))" stroke="var(--fig-key, #b07d12)" stroke-width="2"/><circle cx="548.54" cy="324.24" r="13" fill="var(--fig-wash, rgba(20,22,28,0.05))" stroke="var(--fig-key, #b07d12)" stroke-width="2"/><circle cx="620.04" cy="346.78" r="13" fill="var(--fig-wash, rgba(20,22,28,0.05))" stroke="var(--fig-key, #b07d12)" stroke-width="2"/><circle cx="688.26" cy="377.87" r="13" fill="var(--fig-wash, rgba(20,22,28,0.05))" stroke="var(--fig-key, #b07d12)" stroke-width="2"/><path d="M433.48,168.06 L408.86,315.43 L408.97,316.29 L409,317.16 L408.94,318.04 L408.8,318.9 L408.57,319.74 L408.27,320.56 L407.88,321.34 L407.43,322.09 L406.9,322.78 L406.31,323.42 L405.65,324 L404.95,324.52 L404.2,324.96 L403.41,325.33 L402.58,325.62 L401.74,325.83 L400.87,325.96 L400,326 L399.13,325.96 L398.26,325.83 L397.42,325.62 L396.59,325.33 L395.8,324.96 L395.05,324.52 L394.35,324 L393.69,323.42 L393.1,322.78 L392.57,322.09 L392.12,321.34 L391.73,320.56 L391.43,319.74 L391.2,318.9 L391.06,318.04 L391,317.16 L391.03,316.29 L391.14,315.43 L366.52,168.06 L367.08,165.48 L367.84,162.96 L368.79,160.5 L369.93,158.13 L371.25,155.85 L372.74,153.67 L374.4,151.63 L376.21,149.71 L378.16,147.94 L380.24,146.33 L382.45,144.88 L384.75,143.61 L387.15,142.52 L389.63,141.62 L392.17,140.91 L394.75,140.41 L397.37,140.1 L400,140 L402.63,140.1 L405.25,140.41 L407.83,140.91 L410.37,141.62 L412.85,142.52 L415.25,143.61 L417.55,144.88 L419.76,146.33 L421.84,147.94 L423.79,149.71 L425.6,151.63 L427.26,153.67 L428.75,155.85 L430.07,158.13 L431.21,160.5 L432.16,162.96 L432.92,165.48 L433.48,168.06 Z" fill="var(--fig-wash, rgba(20,22,28,0.05))" stroke="var(--fig-ink, #1a1a1e)" stroke-width="2.4"/><circle cx="400" cy="174" r="15" fill="var(--fig-ink, #1a1a1e)"/><circle cx="400" cy="174" r="6.5" fill="var(--fig-hole, #fff)"/><line x1="180" y1="280" x2="792" y2="280" stroke="var(--fig-line, #d6d8dd)" stroke-width="1.2" stroke-dasharray="4 4"/><text x="14" y="285" fill="var(--fig-muted, #6b7280)" font-size="13.5" font-weight="500" text-anchor="start">the rim</text><line x1="180" y1="306" x2="792" y2="306" stroke="var(--fig-line, #d6d8dd)" stroke-width="1.2" stroke-dasharray="4 4"/><text x="14" y="311" fill="var(--fig-muted, #6b7280)" font-size="13.5" font-weight="500" text-anchor="start" font-family="ui-monospace, SFMono-Regular, Menlo, monospace">R - pegs.inset</text><line x1="180" y1="326" x2="792" y2="326" stroke="var(--fig-line, #d6d8dd)" stroke-width="1.2" stroke-dasharray="4 4"/><text x="14" y="331" fill="var(--fig-muted, #6b7280)" font-size="13.5" font-weight="500" text-anchor="start" font-family="ui-monospace, SFMono-Regular, Menlo, monospace">R - tipInset</text><line x1="532" y1="174" x2="532" y2="326" stroke="var(--fig-key, #b07d12)" stroke-width="1.8" marker-end="url(#fig-head)" marker-start="url(#fig-tail)"/><text x="544" y="255" fill="var(--fig-key, #b07d12)" font-size="13.5" font-weight="500" text-anchor="start" font-family="ui-monospace, SFMono-Regular, Menlo, monospace">skin.length</text><line x1="268" y1="306" x2="268" y2="174" stroke="var(--fig-key, #b07d12)" stroke-width="1.8" marker-end="url(#fig-head)" marker-start="url(#fig-tail)"/><text x="256" y="245" fill="var(--fig-key, #b07d12)" font-size="13.5" font-weight="500" text-anchor="end">the lever the peg turns</text><circle cx="400" cy="174" r="3.5" fill="var(--fig-ink, #1a1a1e)"/><line x1="400" y1="174" x2="460" y2="128" stroke="var(--fig-line, #d6d8dd)" stroke-width="1.2"/><text x="466" y="132.5" fill="var(--fig-ink, #1a1a1e)" font-size="14" font-weight="500" text-anchor="start">pin: pinRadius of boss to turn in</text><circle cx="400" cy="326" r="3.5" fill="var(--fig-ink, #1a1a1e)"/><line x1="400" y1="326" x2="560" y2="370" stroke="var(--fig-line, #d6d8dd)" stroke-width="1.2"/><text x="566" y="374.5" fill="var(--fig-ink, #1a1a1e)" font-size="14" font-weight="500" text-anchor="start">tip</text><line x1="360" y1="368" x2="440" y2="368" stroke="var(--fig-key, #b07d12)" stroke-width="1.8" marker-end="url(#fig-head)" marker-start="url(#fig-tail)"/><text x="400" y="392" fill="var(--fig-key, #b07d12)" font-size="14" font-weight="500" text-anchor="middle">contact width 2c</text></svg>
